# xmcd CD database file
#
# Track frame offsets:
#	150
#	15262
#	32100
#	48275
#	72850
#	97405
#	120870
#	138767
#	150807
#	167947
#	181580
#	208997
#
# Disc length: 3106 seconds
#
# Revision: 3
# Processed by: cddbd v1.5.2PL0 Copyright (c) Steve Scherf et al.
# Submitted via: CDex 1.51
#
DISCID=910c200c
DTITLE=Big Sugar - Big Sugar
DYEAR=1992
DGENRE=Blues
TTITLE0=Sleep In Late
TTITLE1=Come Back Baby
TTITLE2=Motherless Children
TTITLE3=So Many Roads
TTITLE4=Bemsha Swing
TTITLE5=Stardust
TTITLE6=Groundhog Day
TTITLE7=Just About Sunrise
TTITLE8=Goodbye Train
TTITLE9=Nowhere to Go
TTITLE10='Round Midnight
TTITLE11=Devil Got My Woman
EXTD=YEAR: 1992
EXTT0=
EXTT1=
EXTT2=
EXTT3=
EXTT4=
EXTT5=
EXTT6=
EXTT7=
EXTT8=
EXTT9=
EXTT10=
EXTT11=
PLAYORDER=
